<svg width="576" height="512" xmlns="http://www.w3.org/2000/svg" xmlns:xlink="http://www.w3.org/1999/xlink" overflow="hidden"><defs><clipPath id="clip0"><rect x="352" y="104" width="576" height="512"/></clipPath></defs><g clip-path="url(#clip0)" transform="translate(-352 -104)"><path d="M880 104 400 104C373.5 104 352 125.5 352 152L352 472C352 498.5 373.5 520 400 520L592 520 576 568 504 568C490.8 568 480 578.8 480 592 480 605.2 490.8 616 504 616L776 616C789.25 616 800 605.25 800 592 800 578.75 789.25 568 776 568L704 568 688 520 880 520C906.5 520 928 498.5 928 472L928 152C928 125.5 906.5 104 880 104ZM864 392 416 392 416 168 864 168 864 392Z" stroke="#FF0000" stroke-width="6" fill="none"/></g></svg>